<svg class="svg-icon" style="width: 1em; height: 1em;vertical-align: middle;fill: currentColor;overflow: hidden;" viewBox="0 0 1024 1024" version="1.1" xmlns="http://www.w3.org/2000/svg"><path d="M318.176 557.28l-2.08 0-67.04-102.368-81.888-120.864-63.488 0 0 352.8 70.112 0L173.824 464.64l3.04 0 58.208 89.088 89.376 133.12 63.872 0L388.32 334.048l-70.112 0L318.176 557.28zM412.928 708.32l51.68 0 129.568-392.672-52.256 0L412.928 708.32zM797.44 334.048l-71.68 0-123.968 352.8 74.752 0 23.04-72.736 122.912 0 21.504 72.736 76.288 0L797.44 334.048zM718.56 555.264l14.304-46.592 27.2-91.68 2.016 0 27.712 93.216 13.792 45.056L718.56 555.264z"  /></svg>